<svg xmlns="http://www.w3.org/2000/svg" viewBox="0 0 200 48" role="img" aria-label="VouchEx">
  <defs>
    <linearGradient id="bar1" x1="0" y1="1" x2="0" y2="0">
      <stop offset="0%" stop-color="#93C5FD"/>
      <stop offset="100%" stop-color="#DBEAFE"/>
    </linearGradient>
    <linearGradient id="bar2" x1="0" y1="1" x2="0" y2="0">
      <stop offset="0%" stop-color="#60A5FA"/>
      <stop offset="100%" stop-color="#BFDBFE"/>
    </linearGradient>
    <linearGradient id="bar3" x1="0" y1="1" x2="0" y2="0">
      <stop offset="0%" stop-color="#3B82F6"/>
      <stop offset="100%" stop-color="#93C5FD"/>
    </linearGradient>
    <linearGradient id="arrow" x1="0" y1="1" x2="1" y2="0">
      <stop offset="0%" stop-color="#22C55E"/>
      <stop offset="100%" stop-color="#86EFAC"/>
    </linearGradient>
  </defs>
  <g transform="translate(2 4) scale(0.625)">
    <circle cx="32" cy="32" r="27.5" fill="rgba(255,255,255,0.12)" stroke="#93C5FD" stroke-width="2.5"/>
    <rect x="17" y="35" width="9" height="15" rx="2" fill="url(#bar1)"/>
    <rect x="27.5" y="27" width="9" height="23" rx="2" fill="url(#bar2)"/>
    <rect x="38" y="19" width="9" height="31" rx="2" fill="url(#bar3)"/>
    <path fill="url(#arrow)" d="M11 46V24c0-1.2 1.4-1.8 2.2-1l18 14.5c.9.7.9 2.1 0 2.8L13.2 55c-.8.6-2.2.1-2.2-1.1V46h0z"/>
    <path fill="url(#arrow)" d="M46 14.5 52 8.5c.9-.9 2.5-.3 2.5 1v11.2c0 .8-.6 1.4-1.4 1.4H43.8c-1.2 0-1.7-1.6-.8-2.3l3-2.3z"/>
  </g>
  <text x="52" y="31" font-family="Segoe UI, system-ui, -apple-system, sans-serif" font-size="22" font-weight="700" fill="#FFFFFF">VouchEx</text>
</svg>
