<svg xmlns="http://www.w3.org/2000/svg" viewBox="0 0 90 96" role="img" aria-hidden="true">
  <defs>
    <linearGradient id="vx-bar-a" x1="0" y1="0" x2="0" y2="1">
      <stop offset="0%" stop-color="#5EB8FA"/>
      <stop offset="100%" stop-color="#1A6FC4"/>
    </linearGradient>
    <linearGradient id="vx-bar-b" x1="0" y1="0" x2="0" y2="1">
      <stop offset="0%" stop-color="#4DAFF5"/>
      <stop offset="100%" stop-color="#1565B8"/>
    </linearGradient>
    <linearGradient id="vx-bar-c" x1="0" y1="0" x2="0" y2="1">
      <stop offset="0%" stop-color="#3DA6F2"/>
      <stop offset="100%" stop-color="#0F5CAD"/>
    </linearGradient>
    <linearGradient id="vx-green" x1="0" y1="1" x2="1" y2="0">
      <stop offset="0%" stop-color="#22C55E"/>
      <stop offset="100%" stop-color="#16A34A"/>
    </linearGradient>
    <linearGradient id="vx-blue-arc" x1="0" y1="1" x2="1" y2="0">
      <stop offset="0%" stop-color="#2E9AE8"/>
      <stop offset="100%" stop-color="#4DB8FF"/>
    </linearGradient>
  </defs>
  <g shape-rendering="geometricPrecision">
    <rect x="28.2" y="58.2" width="6.4" height="14.8" rx="1.1" fill="url(#vx-bar-a)"/>
    <rect x="35.4" y="50.8" width="6.4" height="22.2" rx="1.1" fill="url(#vx-bar-b)"/>
    <rect x="42.6" y="41.8" width="6.4" height="31.2" rx="1.1" fill="url(#vx-bar-c)"/>
    <path fill="none" stroke="#7EB8DC" stroke-width="4.1" stroke-linecap="round" d="M 27.8 79.6 A 33.8 35.8 0 0 1 62.4 79.6"/>
    <path fill="none" stroke="url(#vx-blue-arc)" stroke-width="4.4" stroke-linecap="round" d="M 27.8 79.6 A 33.8 35.8 0 1 1 31.4 16.2"/>
    <path fill="none" stroke="url(#vx-green)" stroke-width="4.4" stroke-linecap="round" d="M 62.4 79.6 A 33.8 35.8 0 1 0 62.2 16.8"/>
    <path fill="#22C55E" d="M 62.2 16.8 L 71.6 11.2 L 68.4 23.4 Z"/>
  </g>
</svg>
